<svg width="17" height="14" viewBox="0 0 17 14" fill="none" xmlns="http://www.w3.org/2000/svg">
<path d="M16.007 1.33678C15.9907 1.57336 15.8996 1.7916 15.7583 1.97006C15.629 2.07012 15.4993 2.17675 15.3792 2.28734C15.376 2.28711 15.3694 2.28666 15.3691 2.28995C12.3363 4.88097 10.0332 8.21219 8.79945 12.0098C8.79638 12.0063 8.79661 12.003 8.79048 11.996C8.52076 12.7434 7.73454 13.2572 6.84234 13.1958C6.08183 13.1435 5.44834 12.6872 5.17955 12.0745C5.14683 11.9732 5.11365 11.8785 5.08092 11.7772C5.07785 11.7737 5.07127 11.7732 5.0715 11.7699C4.2285 9.35802 2.94747 7.11076 1.30813 5.11949C1.27395 5.08742 1.24351 5.04902 1.21966 5.01106C1.0434 4.78434 0.953516 4.50414 0.973631 4.21169C1.02087 3.52494 1.66177 3.00778 2.40582 3.05895C2.68895 3.07843 2.93703 3.17472 3.14528 3.32111C3.14834 3.32462 3.14834 3.32462 3.15493 3.32507C3.23249 3.39974 3.31641 3.47814 3.39681 3.5596C3.39965 3.5664 3.40885 3.57694 3.41827 3.58419C4.72908 4.86947 6.01702 6.72763 6.96906 8.27546C8.65508 5.30788 10.9105 2.33324 13.8095 0.389992C13.9172 0.314864 14.0249 0.239737 14.1355 0.171407C14.3335 0.0826779 14.5583 0.0354173 14.802 0.052174C15.5131 0.101085 16.0522 0.6796 16.007 1.33678Z" fill="#40BE46"/>
</svg>
